<?xml version="1.0" encoding="UTF-8" standalone="no"?>
<!-- Created with Inkscape (http://www.inkscape.org/) -->

<svg
   xmlns:dc="http://purl.org/dc/elements/1.1/"
   xmlns:cc="http://creativecommons.org/ns#"
   xmlns:rdf="http://www.w3.org/1999/02/22-rdf-syntax-ns#"
   xmlns:svg="http://www.w3.org/2000/svg"
   xmlns="http://www.w3.org/2000/svg"
   xmlns:sodipodi="http://sodipodi.sourceforge.net/DTD/sodipodi-0.dtd"
   xmlns:inkscape="http://www.inkscape.org/namespaces/inkscape"
   width="126.39525mm"
   height="126.39525mm"
   viewBox="0 0 447.85718 447.85718"
   id="svg2"
   version="1.1"
   inkscape:version="0.91 r13725"
   sodipodi:docname="foca_fav.svg"
   inkscape:export-filename="/home/christina/Work/Posters_Presentations/foca_round.png"
   inkscape:export-xdpi="300"
   inkscape:export-ydpi="300">
  <defs
     id="defs4">
    <inkscape:path-effect
       effect="spiro"
       id="path-effect4149"
       is_visible="true" />
    <clipPath
       clipPathUnits="userSpaceOnUse"
       id="clipPath4422">
      <circle
         style="color:#000000;clip-rule:nonzero;display:inline;overflow:visible;visibility:visible;opacity:0.75400002;isolation:auto;mix-blend-mode:normal;color-interpolation:sRGB;color-interpolation-filters:linearRGB;solid-color:#000000;solid-opacity:1;fill:#333333;fill-opacity:1;fill-rule:nonzero;stroke:#cccccc;stroke-width:1.89999998;stroke-linecap:butt;stroke-linejoin:miter;stroke-miterlimit:4;stroke-dasharray:none;stroke-dashoffset:0;stroke-opacity:1;color-rendering:auto;image-rendering:auto;shape-rendering:auto;text-rendering:auto;enable-background:accumulate"
         id="circle4424"
         cx="375.90741"
         cy="459.7402"
         r="223.92859" />
    </clipPath>
    <clipPath
       clipPathUnits="userSpaceOnUse"
       id="clipPath4432">
      <circle
         style="color:#000000;clip-rule:nonzero;display:inline;overflow:visible;visibility:visible;opacity:0.75400002;isolation:auto;mix-blend-mode:normal;color-interpolation:sRGB;color-interpolation-filters:linearRGB;solid-color:#000000;solid-opacity:1;fill:#333333;fill-opacity:1;fill-rule:nonzero;stroke:#cccccc;stroke-width:1.89999998;stroke-linecap:butt;stroke-linejoin:miter;stroke-miterlimit:4;stroke-dasharray:none;stroke-dashoffset:0;stroke-opacity:1;color-rendering:auto;image-rendering:auto;shape-rendering:auto;text-rendering:auto;enable-background:accumulate"
         id="circle4434"
         cx="375.20859"
         cy="461.48715"
         r="223.29951" />
    </clipPath>
  </defs>
  <sodipodi:namedview
     id="base"
     pagecolor="#ffffff"
     bordercolor="#666666"
     borderopacity="1.0"
     inkscape:pageopacity="0"
     inkscape:pageshadow="2"
     inkscape:zoom="1.4"
     inkscape:cx="133.47858"
     inkscape:cy="194.5005"
     inkscape:document-units="px"
     inkscape:current-layer="layer1"
     showgrid="false"
     inkscape:snap-global="false"
     inkscape:window-width="1920"
     inkscape:window-height="1056"
     inkscape:window-x="0"
     inkscape:window-y="24"
     inkscape:window-maximized="1"
     fit-margin-top="0"
     fit-margin-left="0"
     fit-margin-right="0"
     fit-margin-bottom="0" />
  <metadata
     id="metadata7">
    <rdf:RDF>
      <cc:Work
         rdf:about="">
        <dc:format>image/svg+xml</dc:format>
        <dc:type
           rdf:resource="http://purl.org/dc/dcmitype/StillImage" />
        <dc:title></dc:title>
      </cc:Work>
    </rdf:RDF>
  </metadata>
  <g
     inkscape:label="Layer 1"
     inkscape:groupmode="layer"
     id="layer1"
     transform="translate(-151.97882,-235.81161)">
    <circle
       style="color:#000000;clip-rule:nonzero;display:inline;overflow:visible;visibility:visible;opacity:1;isolation:auto;mix-blend-mode:normal;color-interpolation:sRGB;color-interpolation-filters:linearRGB;solid-color:#000000;solid-opacity:1;fill:#ffffff;fill-opacity:1;fill-rule:nonzero;stroke:none;stroke-width:1.89999998;stroke-linecap:butt;stroke-linejoin:miter;stroke-miterlimit:4;stroke-dasharray:none;stroke-dashoffset:0;stroke-opacity:1;color-rendering:auto;image-rendering:auto;shape-rendering:auto;text-rendering:auto;enable-background:accumulate"
       id="path4175"
       cx="376.12167"
       cy="461.09735"
       r="222.14285" />
    <path
       style="color:#000000;clip-rule:nonzero;display:inline;overflow:visible;visibility:visible;opacity:1;isolation:auto;mix-blend-mode:normal;color-interpolation:sRGB;color-interpolation-filters:linearRGB;solid-color:#000000;solid-opacity:1;fill:#333333;fill-opacity:1;fill-rule:nonzero;stroke:#ffffff;stroke-width:1.89999986;stroke-linecap:butt;stroke-linejoin:miter;stroke-miterlimit:4;stroke-dasharray:none;stroke-dashoffset:0;stroke-opacity:1;color-rendering:auto;image-rendering:auto;shape-rendering:auto;text-rendering:auto;enable-background:accumulate"
       d="m 114.64313,222.00446 0,506.42858 506.42858,0 0,-506.42858 z m 134.93194,110.94838 c 0.39266,-0.01 0.78524,-0.0108 1.17697,0 0.52232,0.0145 1.04313,0.0495 1.56171,0.1117 2.81585,0.33798 5.55611,1.23287 8.21814,2.21122 7.26958,2.67177 15.21048,4.79186 21.00556,9.93086 5.43767,4.82205 8.32553,11.97169 11.61047,18.45511 3.221,6.35724 4.71724,13.48728 7.85822,19.88444 3.41642,6.95815 7.06368,13.91667 11.88556,19.9858 9.59459,12.07636 19.73478,24.86656 33.39379,32.02858 20.04891,10.51252 43.24844,19.14553 64.4419,29.62085 8.7287,4.31433 17.66666,8.34003 25.81068,13.67689 8.58674,5.62697 17.0636,11.7061 24.0835,19.1977 9.3689,9.99844 16.9639,21.68497 23.47949,33.73923 5.02374,9.29429 8.47398,19.38628 11.8504,29.39746 3.55495,10.5407 8.62271,27.74086 8.82007,32.18578 0.29417,6.62564 -15.60904,6.73262 -17.82423,8.83868 -8.40094,7.98708 -0.21767,29.07902 -2.12434,34.71348 -2.01364,5.95039 -12.99869,2.60162 -18.53786,3.37993 -4.91781,0.69073 -8.35673,-2.38722 -13.01083,-7.25629 -3.21262,-3.36106 -3.85646,-9.02052 -3.07792,-13.60449 1.6873,-9.93492 4.00301,-21.07378 7.41555,-31.40182 2.05508,-6.2196 1.72678,-14.52081 -0.96598,-17.15196 -6.32971,-6.18507 -16.2842,-7.14279 -23.67394,-12.01176 -8.38854,-5.52696 -14.3021,-14.5311 -23.13611,-19.31354 -8.08981,-4.37978 -17.25216,-7.01034 -26.38986,-8.0692 -9.57977,-1.11022 -19.24186,2.45808 -28.86999,1.90715 -7.20572,-0.41229 -17.94925,-1.57876 -21.30136,-3.88256 -3.40072,-2.33705 0.69591,8.51975 2.82763,12.05313 1.53097,2.53763 5.72304,3.03736 6.71227,5.83108 0.84191,2.37772 -1.4067,2.97753 -1.31763,7.45072 0.0392,1.96584 -2.35845,3.24415 -2.90831,5.13194 -0.77023,2.64429 0.94001,5.85948 -0.42197,8.25329 -0.52927,0.93022 -2.19625,0.82045 -2.6725,1.77891 -1.13817,2.29045 1.15961,5.19523 0.46748,7.65757 -0.58085,2.06645 -3.48013,3.14409 -3.68399,5.28087 -0.36427,3.81847 6.76298,7.29072 4.68101,10.51209 -2.18052,3.37377 -8.2626,1.39085 -12.04898,0.0497 -10.42335,-3.6916 -18.82709,-12.31715 -25.69485,-20.98489 -5.22508,-6.59441 -8.9821,-13.54007 -9.6516,-20.9311 -0.18046,-1.99222 0.36974,-12.9443 0.44472,-14.88282 -0.63126,3.2129 -3.41516,10.52592 -4.983,15.02347 -3.686,10.57354 -15.9087,15.82771 -24.68336,22.78241 -7.15698,5.67259 -19.73818,17.15735 -22.68932,15.35651 -4.91953,-3.00204 6.48467,-9.53005 9.80674,-14.23952 5.40069,-7.65633 13.25059,-13.98191 16.46109,-22.78447 2.78748,-7.64278 1.72175,-16.20485 1.79959,-24.33998 0.0888,-9.27543 0.98451,-18.85276 -1.52035,-27.78404 -2.0323,-7.24637 -8.09277,-12.82777 -10.6693,-19.89892 -1.97322,-5.4154 -1.87816,-11.40632 -3.54953,-16.92236 -2.53623,-8.37039 -7.89615,-15.80798 -9.77365,-24.35033 -1.88872,-8.59332 -1.15325,-17.56454 -1.34452,-26.3609 -0.22564,-10.37753 4.21599,-21.55646 0.23167,-31.1412 -1.72163,-4.14154 -6.13124,-6.58503 -9.60815,-9.41786 -2.95226,-2.40532 -6.63488,-3.84173 -9.47992,-6.37302 -2.69408,-2.39699 -5.47106,-4.96747 -7.04115,-8.214 -2.01924,-4.17523 -3.32167,-9.0678 -2.66009,-13.65828 0.22095,-1.53311 1.21145,-2.88562 2.14089,-4.12457 1.21882,-1.6247 2.56244,-3.3596 4.40796,-4.20732 0.65361,-0.30023 1.35303,-0.46682 2.07263,-0.55229 l 0,0.002 c 1.19932,-0.14252 2.45511,-0.0647 3.65297,-0.0186 2.27389,0.0874 4.4497,1.04883 6.72053,1.19558 2.25574,0.14579 4.57715,0.2146 6.77433,-0.31648 1.74222,-0.42111 3.18442,-1.69357 4.89406,-2.23191 1.64307,-0.51739 3.3668,-0.7596 5.08023,-0.93702 1.16892,-0.12103 2.34879,-0.23125 3.52678,-0.26063 z"
       id="rect4156-8"
       inkscape:connector-curvature="0"
       sodipodi:nodetypes="cccccccssssssssssssssscssscsccscsscsscssscsscsssssssssssssssssccccsscscc"
       clip-path="url(#clipPath4422)"
       transform="translate(0.21426392,1.3571472)" />
    <g
       transform="matrix(3.2578798,0,0,3.2578798,-1485.6649,-550.49911)"
       style="color:#000000;font-style:normal;font-variant:normal;font-weight:normal;font-stretch:normal;font-size:27.5px;line-height:125%;font-family:'Saira Stencil One';-inkscape-font-specification:'Saira Stencil One, Normal';text-align:start;writing-mode:lr-tb;text-anchor:start;clip-rule:nonzero;display:inline;overflow:visible;visibility:visible;opacity:0.86000001;isolation:auto;mix-blend-mode:normal;color-interpolation:sRGB;color-interpolation-filters:linearRGB;solid-color:#000000;solid-opacity:1;fill:#ffffff;fill-opacity:1;fill-rule:nonzero;stroke:none;stroke-width:1.89999998;stroke-linecap:butt;stroke-linejoin:miter;stroke-miterlimit:4;stroke-dasharray:none;stroke-dashoffset:0;stroke-opacity:1;color-rendering:auto;image-rendering:auto;shape-rendering:auto;text-rendering:auto;enable-background:accumulate"
       id="flowRoot4152" />
  </g>
</svg>
