<?xml version="1.0" encoding="UTF-8" standalone="no"?>
<!-- Created with Inkscape (http://www.inkscape.org/) -->

<svg
   xmlns:dc="http://purl.org/dc/elements/1.1/"
   xmlns:cc="http://creativecommons.org/ns#"
   xmlns:rdf="http://www.w3.org/1999/02/22-rdf-syntax-ns#"
   xmlns:svg="http://www.w3.org/2000/svg"
   xmlns="http://www.w3.org/2000/svg"
   xmlns:sodipodi="http://sodipodi.sourceforge.net/DTD/sodipodi-0.dtd"
   xmlns:inkscape="http://www.inkscape.org/namespaces/inkscape"
   width="50.799999mm"
   height="50.799999mm"
   viewBox="0 0 180 180"
   id="svg2"
   version="1.1"
   inkscape:version="0.92.5 (2060ec1f9f, 2020-04-08)"
   sodipodi:docname="foca_logo.svg"
   inkscape:export-filename="/home/christina/Work/Posters_Presentations/foca.png"
   inkscape:export-xdpi="300"
   inkscape:export-ydpi="300">
  <defs
     id="defs4">
    <inkscape:path-effect
       effect="spiro"
       id="path-effect4149"
       is_visible="true" />
  </defs>
  <sodipodi:namedview
     id="base"
     pagecolor="#ffffff"
     bordercolor="#666666"
     borderopacity="1.0"
     inkscape:pageopacity="1"
     inkscape:pageshadow="2"
     inkscape:zoom="0.9899495"
     inkscape:cx="-96.34797"
     inkscape:cy="131.16876"
     inkscape:document-units="px"
     inkscape:current-layer="layer1"
     showgrid="false"
     inkscape:snap-global="false"
     inkscape:window-width="1848"
     inkscape:window-height="1016"
     inkscape:window-x="72"
     inkscape:window-y="27"
     inkscape:window-maximized="1"
     fit-margin-top="0"
     fit-margin-left="0"
     fit-margin-right="0"
     fit-margin-bottom="0" />
  <metadata
     id="metadata7">
    <rdf:RDF>
      <cc:Work
         rdf:about="">
        <dc:format>image/svg+xml</dc:format>
        <dc:type
           rdf:resource="http://purl.org/dc/dcmitype/StillImage" />
        <dc:title></dc:title>
      </cc:Work>
    </rdf:RDF>
  </metadata>
  <g
     inkscape:label="Layer 1"
     inkscape:groupmode="layer"
     id="layer1"
     transform="translate(-174.40742,-488.66874)">
    <g
       id="g886"
       transform="matrix(0.46259742,0,0,0.46259742,94.23753,358.83378)"
       style="stroke-width:2.16170692"
       inkscape:export-xdpi="96"
       inkscape:export-ydpi="96">
      <g
         style="fill:none;stroke:#cccccc;stroke-width:2.16170692"
         id="g4348">
        <g
           style="fill:none;stroke:#cccccc;stroke-width:2.16170692"
           id="g4260"
           transform="translate(4.000002)">
          <path
             inkscape:connector-curvature="0"
             id="path4196"
             d="M 306.19048,287.56468 V 662.7479"
             style="fill:none;fill-rule:evenodd;stroke:#cccccc;stroke-width:2.16170692px;stroke-linecap:butt;stroke-linejoin:miter;stroke-opacity:1" />
          <path
             style="fill:none;fill-rule:evenodd;stroke:#cccccc;stroke-width:2.16170692px;stroke-linecap:butt;stroke-linejoin:miter;stroke-opacity:1"
             d="M 329.25715,287.56468 V 662.7479"
             id="path4198"
             inkscape:connector-curvature="0" />
          <path
             inkscape:connector-curvature="0"
             id="path4200"
             d="M 352.32381,287.56468 V 662.7479"
             style="fill:none;fill-rule:evenodd;stroke:#cccccc;stroke-width:2.16170692px;stroke-linecap:butt;stroke-linejoin:miter;stroke-opacity:1" />
          <path
             style="fill:none;fill-rule:evenodd;stroke:#cccccc;stroke-width:2.16170692px;stroke-linecap:butt;stroke-linejoin:miter;stroke-opacity:1"
             d="M 375.39046,287.56468 V 662.7479"
             id="path4202"
             inkscape:connector-curvature="0" />
          <path
             inkscape:connector-curvature="0"
             id="path4204"
             d="M 398.45716,287.56468 V 662.7479"
             style="fill:none;fill-rule:evenodd;stroke:#cccccc;stroke-width:2.16170692px;stroke-linecap:butt;stroke-linejoin:miter;stroke-opacity:1" />
          <path
             style="fill:none;fill-rule:evenodd;stroke:#cccccc;stroke-width:2.16170692px;stroke-linecap:butt;stroke-linejoin:miter;stroke-opacity:1"
             d="M 421.52379,287.56468 V 662.7479"
             id="path4206"
             inkscape:connector-curvature="0" />
          <path
             inkscape:connector-curvature="0"
             id="path4208"
             d="M 444.59046,287.56468 V 662.7479"
             style="fill:none;fill-rule:evenodd;stroke:#cccccc;stroke-width:2.16170692px;stroke-linecap:butt;stroke-linejoin:miter;stroke-opacity:1" />
          <path
             style="fill:none;fill-rule:evenodd;stroke:#cccccc;stroke-width:2.16170692px;stroke-linecap:butt;stroke-linejoin:miter;stroke-opacity:1"
             d="M 467.65718,287.56468 V 662.7479"
             id="path4210"
             inkscape:connector-curvature="0" />
          <path
             inkscape:connector-curvature="0"
             id="path4212"
             d="M 490.72383,287.56468 V 662.7479"
             style="fill:none;fill-rule:evenodd;stroke:#cccccc;stroke-width:2.16170692px;stroke-linecap:butt;stroke-linejoin:miter;stroke-opacity:1" />
          <path
             style="fill:none;fill-rule:evenodd;stroke:#cccccc;stroke-width:2.16170692px;stroke-linecap:butt;stroke-linejoin:miter;stroke-opacity:1"
             d="M 513.79048,287.56468 V 662.7479"
             id="path4214"
             inkscape:connector-curvature="0" />
          <path
             inkscape:connector-curvature="0"
             id="path4216"
             d="M 283.12382,287.56468 V 662.7479"
             style="fill:none;fill-rule:evenodd;stroke:#cccccc;stroke-width:2.16170692px;stroke-linecap:butt;stroke-linejoin:miter;stroke-opacity:1" />
          <path
             style="fill:none;fill-rule:evenodd;stroke:#cccccc;stroke-width:2.16170692px;stroke-linecap:butt;stroke-linejoin:miter;stroke-opacity:1"
             d="M 260.05712,287.56468 V 662.7479"
             id="path4218"
             inkscape:connector-curvature="0" />
          <path
             inkscape:connector-curvature="0"
             id="path4220"
             d="M 236.99046,287.56468 V 662.7479"
             style="fill:none;fill-rule:evenodd;stroke:#cccccc;stroke-width:2.16170692px;stroke-linecap:butt;stroke-linejoin:miter;stroke-opacity:1" />
          <path
             style="fill:none;fill-rule:evenodd;stroke:#cccccc;stroke-width:2.16170692px;stroke-linecap:butt;stroke-linejoin:miter;stroke-opacity:1"
             d="M 213.92379,287.56468 V 662.7479"
             id="path4222"
             inkscape:connector-curvature="0" />
          <path
             inkscape:connector-curvature="0"
             id="path4224"
             d="M 190.85713,287.56468 V 662.7479"
             style="fill:none;fill-rule:evenodd;stroke:#cccccc;stroke-width:2.16170692px;stroke-linecap:butt;stroke-linejoin:miter;stroke-opacity:1" />
          <path
             inkscape:connector-curvature="0"
             id="path4258"
             d="M 536.85713,287.56468 V 662.7479"
             style="fill:none;fill-rule:evenodd;stroke:#cccccc;stroke-width:2.16170692px;stroke-linecap:butt;stroke-linejoin:miter;stroke-opacity:1" />
        </g>
        <g
           style="fill:none;stroke:#cccccc;stroke-width:2.16170692"
           transform="rotate(-90,365.85713,473.15629)"
           id="g4314">
          <path
             style="fill:none;fill-rule:evenodd;stroke:#cccccc;stroke-width:2.16170692px;stroke-linecap:butt;stroke-linejoin:miter;stroke-opacity:1"
             d="M 306.19048,287.56468 V 662.7479"
             id="path4316"
             inkscape:connector-curvature="0" />
          <path
             inkscape:connector-curvature="0"
             id="path4318"
             d="M 329.25715,287.56468 V 662.7479"
             style="fill:none;fill-rule:evenodd;stroke:#cccccc;stroke-width:2.16170692px;stroke-linecap:butt;stroke-linejoin:miter;stroke-opacity:1" />
          <path
             style="fill:none;fill-rule:evenodd;stroke:#cccccc;stroke-width:2.16170692px;stroke-linecap:butt;stroke-linejoin:miter;stroke-opacity:1"
             d="M 352.32381,287.56468 V 662.7479"
             id="path4320"
             inkscape:connector-curvature="0" />
          <path
             inkscape:connector-curvature="0"
             id="path4322"
             d="M 375.39046,287.56468 V 662.7479"
             style="fill:none;fill-rule:evenodd;stroke:#cccccc;stroke-width:2.16170692px;stroke-linecap:butt;stroke-linejoin:miter;stroke-opacity:1" />
          <path
             style="fill:none;fill-rule:evenodd;stroke:#cccccc;stroke-width:2.16170692px;stroke-linecap:butt;stroke-linejoin:miter;stroke-opacity:1"
             d="M 398.45716,287.56468 V 662.7479"
             id="path4324"
             inkscape:connector-curvature="0" />
          <path
             inkscape:connector-curvature="0"
             id="path4326"
             d="M 421.52379,287.56468 V 662.7479"
             style="fill:none;fill-rule:evenodd;stroke:#cccccc;stroke-width:2.16170692px;stroke-linecap:butt;stroke-linejoin:miter;stroke-opacity:1" />
          <path
             style="fill:none;fill-rule:evenodd;stroke:#cccccc;stroke-width:2.16170692px;stroke-linecap:butt;stroke-linejoin:miter;stroke-opacity:1"
             d="M 444.59046,287.56468 V 662.7479"
             id="path4328"
             inkscape:connector-curvature="0" />
          <path
             inkscape:connector-curvature="0"
             id="path4330"
             d="M 467.65718,287.56468 V 662.7479"
             style="fill:none;fill-rule:evenodd;stroke:#cccccc;stroke-width:2.16170692px;stroke-linecap:butt;stroke-linejoin:miter;stroke-opacity:1" />
          <path
             style="fill:none;fill-rule:evenodd;stroke:#cccccc;stroke-width:2.16170692px;stroke-linecap:butt;stroke-linejoin:miter;stroke-opacity:1"
             d="M 490.72383,287.56468 V 662.7479"
             id="path4332"
             inkscape:connector-curvature="0" />
          <path
             inkscape:connector-curvature="0"
             id="path4334"
             d="M 513.79048,287.56468 V 662.7479"
             style="fill:none;fill-rule:evenodd;stroke:#cccccc;stroke-width:2.16170692px;stroke-linecap:butt;stroke-linejoin:miter;stroke-opacity:1" />
          <path
             style="fill:none;fill-rule:evenodd;stroke:#cccccc;stroke-width:2.16170692px;stroke-linecap:butt;stroke-linejoin:miter;stroke-opacity:1"
             d="M 283.12382,287.56468 V 662.7479"
             id="path4336"
             inkscape:connector-curvature="0" />
          <path
             inkscape:connector-curvature="0"
             id="path4338"
             d="M 260.05712,287.56468 V 662.7479"
             style="fill:none;fill-rule:evenodd;stroke:#cccccc;stroke-width:2.16170692px;stroke-linecap:butt;stroke-linejoin:miter;stroke-opacity:1" />
          <path
             style="fill:none;fill-rule:evenodd;stroke:#cccccc;stroke-width:2.16170692px;stroke-linecap:butt;stroke-linejoin:miter;stroke-opacity:1"
             d="M 236.99046,287.56468 V 662.7479"
             id="path4340"
             inkscape:connector-curvature="0" />
          <path
             inkscape:connector-curvature="0"
             id="path4342"
             d="M 213.92379,287.56468 V 662.7479"
             style="fill:none;fill-rule:evenodd;stroke:#cccccc;stroke-width:2.16170692px;stroke-linecap:butt;stroke-linejoin:miter;stroke-opacity:1" />
          <path
             style="fill:none;fill-rule:evenodd;stroke:#cccccc;stroke-width:2.16170692px;stroke-linecap:butt;stroke-linejoin:miter;stroke-opacity:1"
             d="M 190.85713,287.56468 V 662.7479"
             id="path4344"
             inkscape:connector-curvature="0" />
          <path
             style="fill:none;fill-rule:evenodd;stroke:#cccccc;stroke-width:2.16170692px;stroke-linecap:butt;stroke-linejoin:miter;stroke-opacity:1"
             d="M 536.85713,287.56468 V 662.7479"
             id="path4346"
             inkscape:connector-curvature="0" />
        </g>
      </g>
      <path
         inkscape:connector-curvature="0"
         id="rect4156-8"
         d="m 175.35742,282.71875 v 385 h 385 v -385 z m 215.75196,28.29102 h 2.5996 c 6.68952,0 11.85466,0.53818 15.49805,1.61328 3.70312,1.01537 6.39208,2.71635 8.06445,5.10547 1.55293,2.20992 2.50687,5.10773 2.86524,8.6914 0.41809,3.58367 0.62891,8.95961 0.6289,16.12696 0,6.27141 -0.15057,11.10918 -0.44921,14.51367 -0.23891,3.34475 -0.89561,6.1221 -1.97071,8.33203 -1.19455,2.50857 -3.04612,4.42036 -5.55468,5.73437 -2.44884,1.31401 -5.88288,2.17956 -10.30274,2.59766 v -31.17773 c 0,-5.19633 -0.0301,-8.6022 -0.0898,-10.21485 -0.11946,-2.44884 -0.44878,-4.21006 -0.98633,-5.28515 -0.53755,-1.13483 -1.4031,-1.82164 -2.59766,-2.06055 -1.19455,-0.17919 -2.89554,-0.26953 -5.10547,-0.26953 -2.56829,0 -4.24111,0.12046 -5.01757,0.35937 v -13.97656 c 0.53755,-0.0597 1.34286,-0.0898 2.41797,-0.0898 z m 62.29101,0 h 2.32813 c 4.00176,0 7.9157,0.2992 11.73828,0.89648 1.97101,0.29864 3.49326,0.59785 4.56836,0.89648 v 12.81055 c -0.89592,-0.0597 -2.39,-0.20835 -4.48047,-0.44726 -2.80721,-0.29864 -5.25523,-0.44922 -7.34571,-0.44922 -2.32938,0 -4.21106,0.0903 -5.64453,0.26953 -1.37374,0.11945 -2.50838,0.35843 -3.40429,0.71679 v -14.60351 c 0.47782,-0.0597 1.22486,-0.0898 2.24023,-0.0898 z m -68.47266,0.35937 v 31.17774 c 0,3.52393 0.0602,6.89774 0.17969,10.12304 0.11946,2.44884 0.41866,4.24017 0.89649,5.375 0.53755,1.13483 1.4031,1.79347 2.59765,1.97266 1.01538,0.23891 2.71831,0.35742 5.10742,0.35742 2.44884,0 4.11971,-0.0904 5.01563,-0.26953 v 13.88672 c -0.53755,0.0597 -1.34287,0.0898 -2.41797,0.0898 h -2.59766 c -8.72025,0 -14.99187,-0.9559 -18.81445,-2.86719 -1.97102,-0.95564 -3.52534,-2.23891 -4.66015,-3.85156 -1.13483,-1.61265 -1.97027,-3.61284 -2.50782,-6.00195 -0.47782,-2.09047 -0.77703,-4.48022 -0.89648,-7.16797 -0.11946,-2.74748 -0.17774,-6.62936 -0.17774,-11.64648 0,-6.27142 0.11851,-11.08103 0.35743,-14.42579 0.29863,-3.34475 0.98544,-6.15026 2.06054,-8.41992 1.19456,-2.44884 3.01601,-4.33052 5.46485,-5.64453 2.44884,-1.31401 5.91299,-2.20968 10.39257,-2.6875 z m 62.46875,0.0879 v 31.08985 c 0,3.34475 0.0602,6.56993 0.17969,9.67578 0.11946,2.38911 0.56729,4.18044 1.34375,5.375 0.83619,1.19455 2.12141,1.94159 3.85352,2.24023 1.67238,0.35837 4.15052,0.53711 7.43554,0.53711 3.40449,0 6.30035,-0.14863 8.68946,-0.44727 0.95564,-0.0597 2.1204,-0.2103 3.49414,-0.44921 v 12.99218 c -2.92666,0.65701 -6.24024,1.10484 -9.94336,1.34375 -2.03075,0.17919 -4.27186,0.26758 -6.7207,0.26758 -5.97278,0 -10.72023,-0.50806 -14.24414,-1.52344 -3.46423,-1.0751 -6.09294,-2.83631 -7.88477,-5.28515 -1.73211,-2.32939 -2.92698,-5.40594 -3.58399,-9.22852 -0.59727,-3.8823 -0.89453,-9.04746 -0.89453,-15.49804 0,-5.67415 0.20886,-10.27294 0.62696,-13.79688 0.47782,-3.52394 1.31325,-6.48198 2.50781,-8.87109 1.25428,-2.44884 3.07573,-4.33054 5.46484,-5.64453 2.44884,-1.37374 5.67402,-2.29953 9.67578,-2.77735 z m -130.75195,0.26953 h 17.91797 v 61.63867 h -17.91797 z m 21.67969,0 h 20.96484 v 13.70703 h -20.96484 z m 157.30469,0 h 1.52343 l 7.07813,24.54883 -10.30274,37.08984 h -17.91796 z m 5.55468,0 h 16.39649 l 19.62109,61.63867 h -18.27734 l -3.13672,-10.92968 h -14.96094 l 3.76367,-13.79688 h 7.16602 z m -162.85937,25.44336 h 17.65039 v 13.70899 H 338.32422 Z M 235.38477,354.0957 c 0.37076,-0.009 0.74144,-0.0102 1.11132,0 0.49319,0.0137 0.98495,0.0467 1.47461,0.10547 2.65879,0.31913 5.24622,1.1641 7.75977,2.08789 6.86412,2.52275 14.36212,4.52459 19.83398,9.37696 5.13438,4.5531 7.86117,11.30397 10.96289,17.42578 3.04135,6.00267 4.45414,12.73503 7.41993,18.77539 3.22587,6.57006 6.66971,13.14047 11.22265,18.87109 9.05945,11.4028 18.63407,23.47963 31.53125,30.24219 18.93068,9.92618 40.83626,18.07769 60.84766,27.96875 8.24185,4.0737 16.6813,7.87486 24.37109,12.91406 8.10781,5.31313 16.11188,11.05319 22.74024,18.12695 8.84635,9.44078 16.01774,20.47549 22.16992,31.85743 4.74355,8.7759 8.00135,18.30501 11.18945,27.75781 3.35667,9.9528 8.14178,26.19362 8.32813,30.39062 0.27776,6.2561 -14.73845,6.35711 -16.83008,8.34571 -7.93238,7.5416 -0.20553,27.45714 -2.00586,32.77734 -1.90133,5.6185 -12.27369,2.45651 -17.50391,3.19141 -4.64352,0.6522 -7.89064,-2.25407 -12.28515,-6.85157 -3.03344,-3.1736 -3.64137,-8.5174 -2.90625,-12.8457 1.59319,-9.3808 3.77974,-19.89839 7.00195,-29.65039 1.94045,-5.8727 1.63046,-13.71091 -0.91211,-16.19531 -5.97667,-5.8401 -15.37595,-6.7444 -22.35352,-11.3418 -7.92067,-5.2187 -13.50441,-13.72063 -21.8457,-18.23633 -7.6386,-4.1355 -16.28992,-6.61934 -24.91797,-7.61914 -9.04546,-1.0483 -18.16864,2.32098 -27.25976,1.80078 -6.80383,-0.3893 -16.94814,-1.49071 -20.11328,-3.66601 -3.21105,-2.2067 0.65709,8.04456 2.66992,11.38086 1.44558,2.3961 5.40383,2.86796 6.33789,5.50586 0.79495,2.2451 -1.32824,2.81145 -1.24414,7.03515 0.037,1.8562 -2.22691,3.06321 -2.7461,4.84571 -0.72727,2.4968 0.88758,5.53267 -0.39843,7.79296 -0.49975,0.87834 -2.07376,0.77469 -2.52344,1.67969 -1.07469,2.1627 1.09493,4.90547 0.4414,7.23047 -0.54845,1.9512 -3.28602,2.96873 -3.47851,4.98633 -0.34396,3.6055 6.38577,6.88408 4.41992,9.92578 -2.0589,3.1856 -7.80175,1.31328 -11.37695,0.0469 -9.84198,-3.4857 -17.77701,-11.63016 -24.26172,-19.81446 -4.93365,-6.2266 -8.48112,-12.78487 -9.11328,-19.76367 -0.17039,-1.8811 0.34912,-12.22233 0.41992,-14.05273 -0.59606,3.0337 -3.22468,9.93884 -4.70508,14.18554 -3.48041,9.9838 -15.02139,14.94492 -23.30664,21.51172 -6.7578,5.3562 -18.63729,16.2004 -21.42383,14.5 -4.64514,-2.8346 6.12299,-8.99851 9.25977,-13.44531 5.09947,-7.2293 12.51154,-13.20207 15.54297,-21.51367 2.63201,-7.2165 1.62572,-15.30102 1.69922,-22.98242 0.0838,-8.75809 0.9296,-17.80124 -1.43555,-26.23438 -1.91895,-6.84221 -7.6414,-12.1123 -10.07422,-18.78906 -1.86316,-5.11336 -1.77341,-10.77013 -3.35156,-15.97852 -2.39477,-7.90353 -7.45574,-14.92629 -9.22852,-22.99219 -1.78338,-8.11403 -1.08893,-16.58488 -1.26953,-24.89062 -0.21306,-9.79873 3.98084,-20.35415 0.21875,-29.4043 -1.62561,-3.91055 -5.78927,-6.21775 -9.07226,-8.89258 -2.7876,-2.27117 -6.26482,-3.62746 -8.95118,-6.01757 -2.54381,-2.2633 -5.16591,-4.69041 -6.64843,-7.75586 -1.90661,-3.94236 -3.1364,-8.56205 -2.51172,-12.89649 0.20863,-1.4476 1.14388,-2.72468 2.02148,-3.89453 1.15084,-1.53408 2.41952,-3.17221 4.16211,-3.97265 0.61715,-0.28349 1.27756,-0.44079 1.95703,-0.52149 v 0.002 c 1.13243,-0.13457 2.31817,-0.0611 3.44922,-0.0176 2.14707,0.0825 4.20152,0.99033 6.3457,1.1289 2.12992,0.13766 4.32186,0.20263 6.39649,-0.29883 1.64505,-0.39762 3.00681,-1.59911 4.62109,-2.10742 1.55143,-0.48854 3.17902,-0.71724 4.79688,-0.88476 1.10373,-0.11428 2.21779,-0.21835 3.33008,-0.2461 z"
         style="color:#000000;clip-rule:nonzero;display:inline;overflow:visible;visibility:visible;opacity:1;isolation:auto;mix-blend-mode:normal;color-interpolation:sRGB;color-interpolation-filters:linearRGB;solid-color:#000000;solid-opacity:1;fill:#333333;fill-opacity:1;fill-rule:nonzero;stroke:#ffffff;stroke-width:4.10724258;stroke-linecap:butt;stroke-linejoin:miter;stroke-miterlimit:4;stroke-dasharray:none;stroke-dashoffset:0;stroke-opacity:1;color-rendering:auto;image-rendering:auto;shape-rendering:auto;text-rendering:auto;enable-background:accumulate" />
    </g>
    <g
       transform="matrix(3.2578798,0,0,3.2578798,-1485.6649,-550.49911)"
       style="color:#000000;font-style:normal;font-variant:normal;font-weight:normal;font-stretch:normal;font-size:27.5px;line-height:125%;font-family:'Saira Stencil One';-inkscape-font-specification:'Saira Stencil One, Normal';text-align:start;writing-mode:lr-tb;text-anchor:start;clip-rule:nonzero;display:inline;overflow:visible;visibility:visible;opacity:0.86000001;isolation:auto;mix-blend-mode:normal;color-interpolation:sRGB;color-interpolation-filters:linearRGB;solid-color:#000000;solid-opacity:1;fill:#ffffff;fill-opacity:1;fill-rule:nonzero;stroke:none;stroke-width:1.89999998;stroke-linecap:butt;stroke-linejoin:miter;stroke-miterlimit:4;stroke-dasharray:none;stroke-dashoffset:0;stroke-opacity:1;color-rendering:auto;image-rendering:auto;shape-rendering:auto;text-rendering:auto;enable-background:accumulate"
       id="flowRoot4152" />
  </g>
</svg>
