<?xml version="1.0" encoding="UTF-8" standalone="no"?>
<!-- Created with Inkscape (http://www.inkscape.org/) -->

<svg
   xmlns:dc="http://purl.org/dc/elements/1.1/"
   xmlns:cc="http://creativecommons.org/ns#"
   xmlns:rdf="http://www.w3.org/1999/02/22-rdf-syntax-ns#"
   xmlns:svg="http://www.w3.org/2000/svg"
   xmlns="http://www.w3.org/2000/svg"
   xmlns:sodipodi="http://sodipodi.sourceforge.net/DTD/sodipodi-0.dtd"
   xmlns:inkscape="http://www.inkscape.org/namespaces/inkscape"
   width="83.691818mm"
   height="87.352036mm"
   viewBox="0 0 296.54581 309.51509"
   id="svg2"
   version="1.1"
   inkscape:version="0.91 r13725"
   sodipodi:docname="foca_seal_blk.svg"
   inkscape:export-filename="/home/christina/Work/Posters_Presentations/foca_fav.png"
   inkscape:export-xdpi="300"
   inkscape:export-ydpi="300">
  <defs
     id="defs4">
    <inkscape:path-effect
       effect="spiro"
       id="path-effect4149"
       is_visible="true" />
    <clipPath
       clipPathUnits="userSpaceOnUse"
       id="clipPath4422">
      <circle
         style="color:#000000;clip-rule:nonzero;display:inline;overflow:visible;visibility:visible;opacity:0.75400002;isolation:auto;mix-blend-mode:normal;color-interpolation:sRGB;color-interpolation-filters:linearRGB;solid-color:#000000;solid-opacity:1;fill:#333333;fill-opacity:1;fill-rule:nonzero;stroke:#cccccc;stroke-width:1.89999998;stroke-linecap:butt;stroke-linejoin:miter;stroke-miterlimit:4;stroke-dasharray:none;stroke-dashoffset:0;stroke-opacity:1;color-rendering:auto;image-rendering:auto;shape-rendering:auto;text-rendering:auto;enable-background:accumulate"
         id="circle4424"
         cx="375.90741"
         cy="459.7402"
         r="223.92859" />
    </clipPath>
    <clipPath
       clipPathUnits="userSpaceOnUse"
       id="clipPath4432">
      <circle
         style="color:#000000;clip-rule:nonzero;display:inline;overflow:visible;visibility:visible;opacity:0.75400002;isolation:auto;mix-blend-mode:normal;color-interpolation:sRGB;color-interpolation-filters:linearRGB;solid-color:#000000;solid-opacity:1;fill:#333333;fill-opacity:1;fill-rule:nonzero;stroke:#cccccc;stroke-width:1.89999998;stroke-linecap:butt;stroke-linejoin:miter;stroke-miterlimit:4;stroke-dasharray:none;stroke-dashoffset:0;stroke-opacity:1;color-rendering:auto;image-rendering:auto;shape-rendering:auto;text-rendering:auto;enable-background:accumulate"
         id="circle4434"
         cx="375.20859"
         cy="461.48715"
         r="223.29951" />
    </clipPath>
    <clipPath
       clipPathUnits="userSpaceOnUse"
       id="clipPath4422-3">
      <circle
         style="color:#000000;clip-rule:nonzero;display:inline;overflow:visible;visibility:visible;opacity:0.75400002;isolation:auto;mix-blend-mode:normal;color-interpolation:sRGB;color-interpolation-filters:linearRGB;solid-color:#000000;solid-opacity:1;fill:#333333;fill-opacity:1;fill-rule:nonzero;stroke:#cccccc;stroke-width:1.89999998;stroke-linecap:butt;stroke-linejoin:miter;stroke-miterlimit:4;stroke-dasharray:none;stroke-dashoffset:0;stroke-opacity:1;color-rendering:auto;image-rendering:auto;shape-rendering:auto;text-rendering:auto;enable-background:accumulate"
         id="circle4424-3"
         cx="375.90741"
         cy="459.7402"
         r="223.92859" />
    </clipPath>
  </defs>
  <sodipodi:namedview
     id="base"
     pagecolor="#ffffff"
     bordercolor="#666666"
     borderopacity="1.0"
     inkscape:pageopacity="0"
     inkscape:pageshadow="2"
     inkscape:zoom="1.4"
     inkscape:cx="208.06367"
     inkscape:cy="64.127568"
     inkscape:document-units="px"
     inkscape:current-layer="layer1"
     showgrid="false"
     inkscape:snap-global="false"
     inkscape:window-width="1920"
     inkscape:window-height="1056"
     inkscape:window-x="0"
     inkscape:window-y="24"
     inkscape:window-maximized="1"
     fit-margin-top="0"
     fit-margin-left="0"
     fit-margin-right="0"
     fit-margin-bottom="0" />
  <metadata
     id="metadata7">
    <rdf:RDF>
      <cc:Work
         rdf:about="">
        <dc:format>image/svg+xml</dc:format>
        <dc:type
           rdf:resource="http://purl.org/dc/dcmitype/StillImage" />
        <dc:title></dc:title>
      </cc:Work>
    </rdf:RDF>
  </metadata>
  <g
     inkscape:label="Layer 1"
     inkscape:groupmode="layer"
     id="layer1"
     transform="translate(-248.8223,-300.92362)">
    <g
       transform="matrix(3.2578798,0,0,3.2578798,-1485.6649,-550.49911)"
       style="color:#000000;font-style:normal;font-variant:normal;font-weight:normal;font-stretch:normal;font-size:27.5px;line-height:125%;font-family:'Saira Stencil One';-inkscape-font-specification:'Saira Stencil One, Normal';text-align:start;writing-mode:lr-tb;text-anchor:start;clip-rule:nonzero;display:inline;overflow:visible;visibility:visible;opacity:0.86000001;isolation:auto;mix-blend-mode:normal;color-interpolation:sRGB;color-interpolation-filters:linearRGB;solid-color:#000000;solid-opacity:1;fill:#ffffff;fill-opacity:1;fill-rule:nonzero;stroke:none;stroke-width:1.89999998;stroke-linecap:butt;stroke-linejoin:miter;stroke-miterlimit:4;stroke-dasharray:none;stroke-dashoffset:0;stroke-opacity:1;color-rendering:auto;image-rendering:auto;shape-rendering:auto;text-rendering:auto;enable-background:accumulate"
       id="flowRoot4152" />
    <path
       style="color:#000000;clip-rule:nonzero;display:inline;overflow:visible;visibility:visible;opacity:1;isolation:auto;mix-blend-mode:normal;color-interpolation:sRGB;color-interpolation-filters:linearRGB;solid-color:#000000;solid-opacity:1;fill:#333333;fill-opacity:1;fill-rule:nonzero;stroke:none;stroke-width:1.89999986;stroke-linecap:butt;stroke-linejoin:miter;stroke-miterlimit:4;stroke-dasharray:none;stroke-dashoffset:0;stroke-opacity:1;color-rendering:auto;image-rendering:auto;shape-rendering:auto;text-rendering:auto;enable-background:accumulate"
       d="m 246.04829,333.21347 c -1.71343,0.17742 -3.43716,0.41963 -5.08023,0.93702 -1.70964,0.53834 -3.15184,1.8108 -4.89406,2.23191 -2.19718,0.53108 -4.51859,0.46227 -6.77433,0.31648 -2.27083,-0.14675 -4.44664,-1.10818 -6.72053,-1.19558 -1.19786,-0.0461 -2.45365,-0.12392 -3.65297,0.0186 l 0,-0.002 c -0.7196,0.0855 -1.41902,0.25206 -2.07263,0.55229 -1.84552,0.84772 -3.18914,2.58262 -4.40796,4.20732 -0.92944,1.23895 -1.91994,2.59146 -2.14089,4.12457 -0.66158,4.59048 0.64085,9.48305 2.66009,13.65828 1.57009,3.24653 4.34707,5.81701 7.04115,8.214 2.84504,2.53129 6.52766,3.9677 9.47992,6.37302 3.47691,2.83283 7.88652,5.27632 9.60815,9.41786 3.98432,9.58474 -0.45731,20.76367 -0.23167,31.1412 0.19127,8.79636 -0.5442,17.76758 1.34452,26.3609 1.8775,8.54235 7.23742,15.97994 9.77365,24.35033 1.67137,5.51604 1.57631,11.50696 3.54953,16.92236 2.57653,7.07115 8.637,12.65255 10.6693,19.89892 2.50486,8.93128 1.60915,18.50861 1.52035,27.78404 -0.0778,8.13513 0.98789,16.6972 -1.79959,24.33998 -3.2105,8.80256 -11.0604,15.12814 -16.46109,22.78447 -3.32207,4.70947 -14.72627,11.23748 -9.80674,14.23952 2.95114,1.80084 15.53234,-9.68392 22.68932,-15.35651 8.77466,-6.9547 20.99736,-12.20887 24.68336,-22.78241 1.56784,-4.49755 4.35174,-11.81057 4.983,-15.02347 -0.075,1.93852 -0.62518,12.8906 -0.44472,14.88282 0.6695,7.39103 4.42652,14.33669 9.6516,20.9311 6.86776,8.66774 15.2715,17.29329 25.69485,20.98489 3.78638,1.34115 9.86846,3.32407 12.04898,-0.0497 2.08197,-3.22137 -5.04528,-6.69362 -4.68101,-10.51209 0.20386,-2.13678 3.10314,-3.21442 3.68399,-5.28087 0.69213,-2.46234 -1.60565,-5.36712 -0.46748,-7.65757 0.47625,-0.95846 2.14323,-0.84869 2.6725,-1.77891 1.36198,-2.39381 -0.34826,-5.609 0.42197,-8.25329 0.54986,-1.88779 2.94751,-3.1661 2.90831,-5.13194 -0.0891,-4.47319 2.15954,-5.073 1.31763,-7.45072 -0.98923,-2.79372 -5.1813,-3.29345 -6.71227,-5.83108 -2.13172,-3.53338 -6.22835,-14.39018 -2.82763,-12.05313 3.35211,2.3038 14.09564,3.47027 21.30136,3.88256 9.62813,0.55093 19.29022,-3.01737 28.86999,-1.90715 9.1377,1.05886 18.30005,3.68942 26.38986,8.0692 8.83401,4.78244 14.74757,13.78658 23.13611,19.31354 7.38974,4.86897 17.34423,5.82669 23.67394,12.01176 2.69276,2.63115 3.02106,10.93236 0.96598,17.15196 -3.41254,10.32804 -5.72825,21.4669 -7.41555,31.40182 -0.77854,4.58397 -0.1347,10.24343 3.07792,13.60449 4.6541,4.86907 8.09302,7.94702 13.01083,7.25629 5.53917,-0.77831 16.52422,2.57046 18.53786,-3.37993 1.90667,-5.63446 -6.2766,-26.7264 2.12434,-34.71348 2.21519,-2.10606 18.1184,-2.21304 17.82423,-8.83868 -0.19736,-4.44492 -5.26512,-21.64508 -8.82007,-32.18578 -3.37642,-10.01118 -6.82666,-20.10317 -11.8504,-29.39746 -6.51559,-12.05426 -14.11059,-23.74079 -23.47949,-33.73923 -7.0199,-7.4916 -15.49676,-13.57073 -24.0835,-19.1977 -8.14402,-5.33686 -17.08198,-9.36256 -25.81068,-13.67689 -21.19346,-10.47532 -44.39299,-19.10833 -64.4419,-29.62085 -13.65901,-7.16202 -23.7992,-19.95222 -33.39379,-32.02858 -4.82188,-6.06913 -8.46914,-13.02765 -11.88556,-19.9858 -3.14098,-6.39716 -4.63722,-13.5272 -7.85822,-19.88444 -3.28494,-6.48342 -6.1728,-13.63306 -11.61047,-18.45511 -5.79508,-5.139 -13.73598,-7.25909 -21.00556,-9.93086 -2.66203,-0.97835 -5.40229,-1.87324 -8.21814,-2.21122 -0.51858,-0.0622 -1.03939,-0.0972 -1.56171,-0.1117 -0.39173,-0.0108 -0.78431,-0.01 -1.17697,0 -1.17799,0.0294 -2.35786,0.1396 -3.52678,0.26063 z"
       id="rect4156-8-8"
       inkscape:connector-curvature="0"
       sodipodi:nodetypes="scssccccssssssssssssssssscsscssscsscsscsccscssscsssssssssssssssccs"
       clip-path="url(#clipPath4422-3)"
       transform="translate(39.64284,-31.071415)" />
  </g>
</svg>
