<?xml version="1.0" encoding="UTF-8" standalone="no"?>
<!-- Created with Inkscape (http://www.inkscape.org/) -->

<svg
   xmlns:dc="http://purl.org/dc/elements/1.1/"
   xmlns:cc="http://creativecommons.org/ns#"
   xmlns:rdf="http://www.w3.org/1999/02/22-rdf-syntax-ns#"
   xmlns:svg="http://www.w3.org/2000/svg"
   xmlns="http://www.w3.org/2000/svg"
   xmlns:sodipodi="http://sodipodi.sourceforge.net/DTD/sodipodi-0.dtd"
   xmlns:inkscape="http://www.inkscape.org/namespaces/inkscape"
   id="svg3416"
   sodipodi:docname="hint.svg"
   viewBox="0 0 20.205154 26"
   version="1.1"
   inkscape:version="1.0.1 (0767f8302a, 2020-10-17)"
   width="20.205154"
   height="30">
  <defs
     id="defs16" />
  <sodipodi:namedview
     id="base"
     fit-margin-left="0"
     inkscape:zoom="8.730617"
     borderopacity="1.0"
     inkscape:current-layer="layer1"
     inkscape:cx="8.8413071"
     inkscape:cy="15.885238"
     inkscape:grid-bbox="true"
     inkscape:window-maximized="1"
     showgrid="true"
     fit-margin-right="0"
     inkscape:document-units="px"
     bordercolor="#666666"
     inkscape:window-x="72"
     inkscape:window-y="27"
     fit-margin-bottom="0"
     inkscape:window-width="1848"
     inkscape:pageopacity="0.0"
     inkscape:pageshadow="2"
     pagecolor="#ffffff"
     inkscape:window-height="1016"
     fit-margin-top="0"
     inkscape:document-rotation="0" />
  <g
     id="layer1"
     inkscape:label="Layer 1"
     inkscape:groupmode="layer"
     transform="translate(76.363254,79.336562)">
    <g
       id="g851"
       transform="matrix(0.11356894,0,0,0.11356894,-67.69076,-65.659726)">
      <path
         id="path3237"
         style="fill:#000000;fill-rule:evenodd"
         d="m -0.51897,92.754 c -0.24619,-0.0675 -0.3249,-0.68914 -0.31718,-1.8124 0.007714,-1.1232 0.09916,-2.7515 0.09642,-4.8411 -0.00274,-2.0897 -0.1019,-4.6455 -0.53533,-7.5704 -0.43343,-2.9249 -1.2029,-6.2238 -2.5761,-9.6724 -1.2306,-3.1519 -2.9924,-6.4213 -5.246,-9.8394 -2.2536,-3.4181 -5.0031,-6.9841 -7.954,-10.84 -2.4126,-3.0864 -4.9874,-6.4164 -7.4384,-10.141 -2.451,-3.7242 -4.7783,-7.8429 -6.5597,-12.557 -1e-6,-4e-6 -3e-6,-7e-6 -4e-6,-10e-6 -2.2358,-6.0874 -3.2336,-12.898 -2.684,-19.861 0.54963,-6.9625 2.6479,-14.075 6.531,-20.518 3.4514,-5.6783 8.2302,-10.668 13.967,-14.48 5.7365,-3.8122 12.429,-6.445 19.564,-7.3752 0.31494,-0.04106 0.63032,-0.07875 0.94608,-0.11304 7.346,-0.76597 14.66,0.3505 21.236,2.9259 6.5767,2.5754 12.414,6.6082 16.983,11.673 5.0562,5.6581 8.358,12.396 9.974,19.241 1.616,6.8443 1.5472,13.792 0.0042,20.147 -0.93548,3.6812 -2.2402,7.0082 -3.6296,10.09 -1.3894,3.0823 -2.8637,5.9199 -4.2148,8.6012 -1e-6,2e-6 -3e-6,5e-6 -4e-6,8e-6 -7.3947,14.839 -12.131,27.666 -15.322,36.634 -1.5953,4.4841 -2.8062,8.0117 -3.7321,10.393 -0.92587,2.3809 -1.5698,3.6153 -1.9499,3.5333 -0.38007,-0.08199 -0.47606,-1.4769 -0.25284,-4.0448 0.22322,-2.5679 0.76861,-6.309 1.7541,-11.051 0.98552,-4.7416 2.414,-10.484 4.4428,-17.015 2.0288,-6.5311 4.6604,-13.851 8.0524,-21.702 2e-6,-3e-6 3e-6,-6e-6 4e-6,-9e-6 1.2152,-2.8463 2.5162,-5.6965 3.6776,-8.5761 1.1614,-2.8796 2.1832,-5.7884 2.7637,-8.7747 1.048,-5.041 0.887,-10.582 -0.558,-15.997 -1.446,-5.4158 -4.176,-10.705 -8.157,-14.968 -3.5637,-3.8622 -8.2087,-6.9507 -13.413,-8.9299 -5.204,-1.9792 -10.965,-2.8482 -16.603,-2.2368 -0.24316,0.025 -0.48628,0.05276 -0.7293,0.08326 -5.5056,0.69108 -10.795,2.7666 -15.367,5.7531 -4.5721,2.9865 -8.4253,6.8826 -11.179,11.275 -3.1476,4.968 -4.9466,10.649 -5.5413,16.272 -0.59469,5.6226 0.0151,11.185 1.6409,16.155 l 3e-6,9e-6 c 1.2387,3.9334 3.1346,7.5885 5.2357,11.085 2.1011,3.4967 4.4074,6.8348 6.602,10.081 2.7697,4.0066 5.3961,7.965 7.5313,11.867 2.1351,3.9023 3.7827,7.7463 4.8616,11.443 1.1656,4.0803 1.5856,7.8568 1.6106,11.122 0.025032,3.2649 -0.34285,6.0232 -0.81798,8.209 -0.47513,2.1858 -1.0557,3.8041 -1.5498,4.8565 -0.49414,1.0523 -0.90025,1.5423 -1.1464,1.4748 z"
         inkscape:connector-curvature="0"
         inkscape:original-d="m -0.51897231,92.754041 c -0.74399999,-6.8439 1.74704001,-17.01685 -0.71428999,-24.77919 -5.34631,-16.86074 -24.1489997,-24.18095 -25.7142797,-43.92675 -3.2369,-40.832957 62.2736,-24.64174658 78.21428,-7.884277 2.81966,2.96412 -5.91206,15.433517 -7.14286,18.021227 -11.68112,24.55928 -17.5,22.17928 -17.5,52.18647" />
      <path
         id="path3261"
         style="fill:#000000;fill-rule:evenodd"
         d="m 2.4684,72.974 c 0.32477,-2.7408 5.9894,-4.3253 12.644,-3.5367 6.6549,0.78857 11.792,3.653 11.468,6.3938 -0.32478,2.7408 -5.9894,4.3253 -12.644,3.5367 -6.6549,-0.789 -11.792,-3.653 -11.468,-6.394 z"
         inkscape:connector-curvature="0"
         inkscape:original-d="m 2.4684277,72.974091 c 8.1567403,0.46851 16.1400803,1.91252 24.1118603,2.85714" />
      <path
         id="path3267"
         style="fill:#000000;fill-rule:evenodd"
         d="m -0.87612,87.403 c 0.22652,-2.751 7.2104,-4.423 15.589,-3.733 8.3786,0.69 14.995,3.4824 14.768,6.2331 -0.22653,2.7507 -7.2104,4.4231 -15.589,3.7331 -8.3786,-0.69 -14.995,-3.4824 -14.768,-6.2331 z"
         inkscape:connector-curvature="0"
         inkscape:original-d="m -0.87612231,87.402661 c 9.64024001,-0.3156 23.56547031,2.04722 30.35715031,2.5" />
      <path
         id="path3273"
         style="fill:#000000;fill-rule:evenodd"
         d="m -0.37612,100.97 c 0.40447,-2.726 7.2127,-3.982 15.197,-2.799 7.9843,1.1829 14.136,4.3587 13.732,7.0889 -0.40447,2.7302 -7.2127,3.986 -15.197,2.8032 -7.9843,-1.1828 -14.136,-4.3587 -13.732,-7.0889 z"
         inkscape:connector-curvature="0"
         inkscape:original-d="M -0.37612231,100.97409 C 9.2970677,101.93601 18.832718,105.2598 28.552458,105.2598" />
      <path
         id="path3303"
         style="fill:#000000;fill-rule:evenodd"
         d="m -54.471,-52.626 c 1.7376,-2.1443 9.7099,1.4328 17.795,7.9846 8.0853,6.5518 13.237,13.61 11.499,15.754 -1.7376,2.1443 -9.7099,-1.4328 -17.795,-7.9846 -8.0853,-6.5518 -13.237,-13.61 -11.499,-15.754 z"
         inkscape:connector-curvature="0"
         inkscape:original-d="m -54.471432,-52.626166 c 8.45443,9.56307 18.12908,17.53561 29.29442,23.73858" />
      <path
         id="path3309"
         style="fill:#000000;fill-rule:evenodd"
         d="m 4.6225,-79.331 c 2.7507,-0.226 5.5485,6.463 6.2455,14.93 0.697,8.468 -0.9694,15.525 -3.7201,15.751 -2.7507,0.226 -5.5489,-6.462 -6.2459,-14.93 -0.69697,-8.468 0.9698,-15.524 3.7205,-15.751 z"
         inkscape:connector-curvature="0"
         inkscape:original-d="m 4.6224877,-79.330796 c 1.8819,9.67038 2.09021,20.29575 2.52538,30.68081" />
      <path
         id="path3315"
         style="fill:#000000;fill-rule:evenodd"
         d="m 75.721,-62.816 c 2.2121,1.6506 -0.91827,9.5915 -6.9874,17.725 -6.0691,8.1338 -12.79,13.396 -15.002,11.745 -2.2121,-1.6506 0.91827,-9.5915 6.9874,-17.725 6.0691,-8.1338 12.79,-13.396 15.002,-11.745 z"
         inkscape:connector-curvature="0"
         inkscape:original-d="m 75.721328,-62.815656 c -4.34104,11.37928 -13.18816,21.36245 -21.98952,29.47036" />
      <path
         id="path3321"
         style="fill:#000000;fill-rule:evenodd"
         d="m 65.92,-0.89867 c -1.197,-2.4868 5.782,-8.3326 15.578,-13.048 9.7962,-4.716 18.718,-6.5252 19.916,-4.0384 1.1972,2.4868 -5.7817,8.3326 -15.578,13.049 -9.7962,4.716 -18.718,6.5252 -19.916,4.0384 z"
         inkscape:connector-curvature="0"
         inkscape:original-d="M 65.920258,-0.89866558 C 77.088848,-9.2995656 88.950178,-13.123156 101.41361,-17.985646" />
      <path
         id="path3333"
         style="fill:#000000;fill-rule:evenodd"
         d="m -76.202,-10.247 c 1.2958,-2.4369 10.047,-0.32059 19.533,4.7239 9.4862,5.0444 16.133,11.116 14.838,13.553 -1.2958,2.4369 -10.047,0.32059 -19.533,-4.7239 -9.4862,-5.0444 -16.133,-11.116 -14.838,-13.553 z"
         inkscape:connector-curvature="0"
         inkscape:original-d="m -76.202312,-10.246886 c 10.64502,7.2223804 21.79238,16.2460604 34.37039,18.2769904" />
      <path
         id="path3339"
         style="fill:#ffff00"
         inkscape:connector-curvature="0"
         d="M 25.561,73.158 C 22.4953,69.4436 8.373,67.7862 4.031,70.6312 2.8328,71.41626 2.8325,71.41584 2.8325,69.2128 c 0,-6.899 -4.5691,-17.075 -13.422,-29.892 -9.6528,-13.975 -11.496,-17.386 -13.346,-24.703 -2.4122,-9.5365 -0.16448,-22.171 5.3221,-29.917 13.641,-19.258 39.761,-21.756 56.13,-5.3694 7.8871,7.8953 11.751,20.542 9.5686,31.315 -0.94315,4.6546 -1.9989,7.5655 -6.3698,17.563 -6.8363,15.636 -12.049,32.084 -14.233,44.904 -0.15794,0.92743 -0.19155,0.92905 -0.92154,0.0446 z" />
    </g>
  </g>
  <metadata
     id="metadata34">
    <rdf:RDF>
      <cc:Work>
        <dc:format>image/svg+xml</dc:format>
        <dc:type
           rdf:resource="http://purl.org/dc/dcmitype/StillImage" />
        <cc:license
           rdf:resource="http://creativecommons.org/publicdomain/zero/1.0/" />
        <dc:publisher>
          <cc:Agent
             rdf:about="http://openclipart.org/">
            <dc:title>Openclipart</dc:title>
          </cc:Agent>
        </dc:publisher>
        <dc:title></dc:title>
      </cc:Work>
      <cc:License
         rdf:about="http://creativecommons.org/publicdomain/zero/1.0/">
        <cc:permits
           rdf:resource="http://creativecommons.org/ns#Reproduction" />
        <cc:permits
           rdf:resource="http://creativecommons.org/ns#Distribution" />
        <cc:permits
           rdf:resource="http://creativecommons.org/ns#DerivativeWorks" />
      </cc:License>
    </rdf:RDF>
  </metadata>
</svg>
